<svg xmlns="http://www.w3.org/2000/svg" viewBox="0 0 64 64" width="64" height="64">
  <rect width="64" height="64" rx="14" fill="#363636"/>
  <path d="M9 40.5V36.5c0-2.2 1.4-3.6 3.4-3.9L19.5 31.5 25.6 24.6c1-1.1 2.2-1.6 3.6-1.6h10.6c1.4 0 2.6.5 3.6 1.6l6.4 7 4.9 1c2 .4 3.3 1.8 3.3 3.9v4c0 1.6-1 2.5-2.5 2.5H11.5C10 43 9 42.1 9 40.5z" fill="#fff"/>
  <path d="M27.6 26.2h6.2v5.6H22.7zM36.4 26.2h3.8c.6 0 1.1.2 1.5.6l4.5 5H36.4z" fill="#363636"/>
  <circle cx="20" cy="43" r="6.2" fill="#363636"/>
  <circle cx="20" cy="43" r="2.7" fill="#fff"/>
  <circle cx="46" cy="43" r="6.2" fill="#363636"/>
  <circle cx="46" cy="43" r="2.7" fill="#fff"/>
  <circle cx="55.5" cy="37.5" r="1.6" fill="#363636"/>
</svg>
